<?xml version="1.0" standalone="no"?><!DOCTYPE svg PUBLIC "-//W3C//DTD SVG 1.1//EN" "http://www.w3.org/Graphics/SVG/1.1/DTD/svg11.dtd"><svg t="1707374249830" class="icon" viewBox="0 0 1024 1024" version="1.1" xmlns="http://www.w3.org/2000/svg" p-id="2551" width="200" height="200" xmlns:xlink="http://www.w3.org/1999/xlink"><path d="M1009.3056 399.36a50.2784 50.2784 0 0 0-39.68-19.2512h-14.8992V236.1344a56.32 56.32 0 0 0-56.064-56.32H460.8l-77.9776-112.64a65.1776 65.1776 0 0 0-53.504-28.1088H62.4128A56.32 56.32 0 0 0 6.3488 95.0784v798.1568a99.84 99.84 0 0 0 99.3792 99.4304h741.9904a50.432 50.432 0 0 0 49.2032-38.8608L1018.88 442.4704a50.3808 50.3808 0 0 0-9.5744-43.1104zM76.8 858.9824V109.5168h249.7536l77.824 112.64a64.9728 64.9728 0 0 0 53.6064 28.2112h426.2912v129.792H230.8608a50.3808 50.3808 0 0 0-49.2032 38.8608z m755.2512 63.0784H134.144L246.528 450.56h697.9072z" p-id="2552" fill="#2d83fa"></path><path d="M446.8736 826.9312l90.0096-90.9312 90.0096 90.9824 46.0288-46.08-91.0336-89.9584 91.0336-90.0608-46.0288-45.9264-90.0096 90.9312-90.0096-90.9312-46.0288 45.9264 90.9824 90.0608-90.9824 89.9584 46.0288 46.0288z" p-id="2553" fill="#2d83fa"></path></svg>