<?xml version="1.0" standalone="no"?><!DOCTYPE svg PUBLIC "-//W3C//DTD SVG 1.1//EN" "http://www.w3.org/Graphics/SVG/1.1/DTD/svg11.dtd"><svg t="1706700817021" class="icon" viewBox="0 0 1024 1024" version="1.1" xmlns="http://www.w3.org/2000/svg" p-id="2570" xmlns:xlink="http://www.w3.org/1999/xlink" width="200" height="200"><path d="M918.101333 253.696H105.898667a34.133333 34.133333 0 0 1 0-68.266667h812.202666a34.133333 34.133333 0 0 1 0 68.266667z" p-id="2571"></path><path d="M833.792 946.261333H190.208a34.133333 34.133333 0 0 1-34.133333-34.133333V219.562667a34.133333 34.133333 0 0 1 34.133333-34.133334h643.584a34.133333 34.133333 0 0 1 34.133333 34.133334v692.565333a34.133333 34.133333 0 0 1-34.133333 34.133333z m-609.450667-68.266666h575.317334V253.696H224.341333z" p-id="2572"></path><path d="M646.912 253.696H377.088a34.133333 34.133333 0 0 1-34.133333-34.133333V111.872a34.133333 34.133333 0 0 1 34.133333-34.133333h269.824a34.133333 34.133333 0 0 1 34.133333 34.133333v107.690667a34.133333 34.133333 0 0 1-34.133333 34.133333z m-235.690667-68.266667h201.557334v-39.424H411.221333zM397.909333 761.429333a34.133333 34.133333 0 0 1-34.133333-34.133333V435.968a34.133333 34.133333 0 0 1 68.266667 0v291.328a34.133333 34.133333 0 0 1-34.133334 34.133333zM626.090667 761.429333a34.133333 34.133333 0 0 1-34.133334-34.133333V435.968a34.133333 34.133333 0 0 1 68.266667 0v291.328a34.133333 34.133333 0 0 1-34.133333 34.133333z" p-id="2573"></path></svg>