<?xml version="1.0" standalone="no"?><!DOCTYPE svg PUBLIC "-//W3C//DTD SVG 1.1//EN" "http://www.w3.org/Graphics/SVG/1.1/DTD/svg11.dtd"><svg t="1706700714711" class="icon" viewBox="0 0 1024 1024" version="1.1" xmlns="http://www.w3.org/2000/svg" p-id="2425" xmlns:xlink="http://www.w3.org/1999/xlink" width="200" height="200"><path d="M912.042667 866.048H111.957333a34.133333 34.133333 0 0 1-34.133333-34.133333v-640a34.133333 34.133333 0 0 1 34.133333-34.133334h321.024a34.133333 34.133333 0 0 1 30.72 19.285334l69.717334 144.128h378.624a34.133333 34.133333 0 0 1 34.133333 34.133333v476.586667a34.133333 34.133333 0 0 1-34.133333 34.133333z m-765.952-68.266667h731.818666V389.632H512a34.133333 34.133333 0 0 1-30.72-19.285333l-69.717333-144.128H146.090667z" p-id="2426"></path></svg>