<?xml version="1.0" standalone="no"?><!DOCTYPE svg PUBLIC "-//W3C//DTD SVG 1.1//EN" "http://www.w3.org/Graphics/SVG/1.1/DTD/svg11.dtd"><svg t="1706700641235" class="icon" viewBox="0 0 1024 1024" version="1.1" xmlns="http://www.w3.org/2000/svg" p-id="2279" xmlns:xlink="http://www.w3.org/1999/xlink" width="200" height="200"><path d="M841.557333 946.688H182.442667a34.133333 34.133333 0 0 1-34.133334-34.133333V111.445333a34.133333 34.133333 0 0 1 34.133334-34.133333h343.978666a34.133333 34.133333 0 0 1 34.133334 34.133333V392.533333h281.002666a34.133333 34.133333 0 0 1 34.133334 34.133334v486.4a34.133333 34.133333 0 0 1-34.133334 33.621333z m-624.981333-68.266667h590.848V460.8H526.421333a34.133333 34.133333 0 0 1-34.133333-34.133333V145.578667H216.576z" p-id="2280"></path><path d="M841.557333 460.8a34.133333 34.133333 0 0 1-24.149333-10.069333L502.357333 135.594667a34.133333 34.133333 0 1 1 48.213334-48.298667l315.136 315.136A34.133333 34.133333 0 0 1 841.557333 460.8z" p-id="2281"></path></svg>