<?xml version="1.0" standalone="no"?><!DOCTYPE svg PUBLIC "-//W3C//DTD SVG 1.1//EN" "http://www.w3.org/Graphics/SVG/1.1/DTD/svg11.dtd"><svg t="1707282389389" class="icon" viewBox="0 0 1024 1024" version="1.1" xmlns="http://www.w3.org/2000/svg" p-id="7561" xmlns:xlink="http://www.w3.org/1999/xlink" width="200" height="200"><path d="M786.944 250.299733H529.646933c-6.7584-68.608 20.360533-118.135467-168.925866-118.135466h-162.2016c-154.811733 0-148.0192 46.165333-148.0192 138.461866V781.312c0 126.532267 0 109.824 119.381333 109.824h190.856533c97.570133 0 176.657067-74.820267 176.657067-167.099733v-8.328534h155.528533c94.037333 0 170.257067-75.605333 170.257067-168.874666V419.157333c0-93.252267 17.800533-168.8576-76.2368-168.8576z" fill="#FFEC86" p-id="7562"></path><path d="M109.568 913.322667c-80.554667 0-80.554667-33.262933-80.554667-132.010667l-0.034133-521.813333c-0.136533-48.059733-0.273067-85.998933 27.136-113.493334 24.695467-24.763733 67.2768-35.345067 142.3872-35.345066h162.2016c172.561067 0 186.487467 42.581333 188.893867 112.725333 0.085333 1.792 0.136533 3.601067 0.187733 5.410133H786.944c32.750933 0 56.695467 8.226133 73.147733 25.156267 28.023467 28.8256 26.760533 74.359467 25.275734 127.061333-0.341333 12.253867-0.699733 25.002667-0.699734 38.126934v127.658666c0 104.96-85.998933 190.344533-191.726933 190.344534h-134.536533c-7.099733 97.860267-93.047467 175.428267-197.666134 175.428266H169.8816c-13.789867 0-25.975467 0.221867-36.727467 0.426667a1130.496 1130.496 0 0 1-23.586133 0.324267z m88.951467-759.688534c-60.945067 0-96.529067 7.2192-111.9744 22.715734-14.813867 14.848-14.711467 43.451733-14.592 83.012266l0.017066 521.949867c0 89.053867 0 89.053867 37.597867 89.053867 6.775467 0 14.353067-0.136533 22.801067-0.3072 10.990933-0.187733 23.432533-0.426667 37.512533-0.426667h190.856533c85.572267 0 155.1872-65.314133 155.1872-145.6128v-29.815467h177.015467c82.039467 0 148.770133-66.116267 148.770133-147.387733v-127.658667c0-13.5168 0.3584-26.692267 0.733867-39.3216 1.194667-42.973867 2.235733-80.110933-13.141333-95.914666-7.936-8.174933-21.794133-12.1344-42.3424-12.1344H510.173867l-1.8944-19.370667a420.727467 420.727467 0 0 1-1.5872-27.528533c-1.621333-47.428267-2.4576-71.253333-145.954134-71.253334h-162.218666z" fill="#C6AC40" p-id="7563"></path><path d="M72.3456 891.8528l240.7936-451.089067H851.285333s198.519467-42.171733 89.3952 174.7968c-87.517867 173.9776-149.589333 276.292267-149.589333 276.292267H72.3456z" fill="#FFEC86" p-id="7564"></path><path d="M791.074133 913.322667H72.328533a21.504 21.504 0 0 1-18.944-31.607467l240.7936-451.054933a21.4528 21.4528 0 0 1 18.944-11.3664H849.237333c5.563733-1.024 20.104533-3.293867 37.614934-3.293867 45.1072 0 78.0288 14.728533 95.214933 42.581333 22.818133 37.051733 15.547733 91.562667-22.203733 166.638934-86.903467 172.731733-149.8112 276.753067-150.4256 277.76a21.486933 21.486933 0 0 1-18.363734 10.3424zM108.151467 870.365867h670.702933c17.732267-30.071467 72.157867-124.347733 142.6432-264.448 29.252267-58.146133 37.751467-102.468267 23.995733-124.791467-11.298133-18.312533-38.126933-22.1696-58.624-22.1696-17.288533 0-31.010133 2.816-31.163733 2.833067a21.230933 21.230933 0 0 1-4.420267 0.4608H326.007467L108.151467 870.365867z" fill="#C6AC40" p-id="7565"></path></svg>