<?xml version="1.0" standalone="no"?><!DOCTYPE svg PUBLIC "-//W3C//DTD SVG 1.1//EN" "http://www.w3.org/Graphics/SVG/1.1/DTD/svg11.dtd"><svg t="1706700831848" class="icon" viewBox="0 0 1024 1024" version="1.1" xmlns="http://www.w3.org/2000/svg" p-id="2717" xmlns:xlink="http://www.w3.org/1999/xlink" width="200" height="200"><path d="M556.373333 280.576a34.133333 34.133333 0 0 1-24.149333-9.984L397.568 135.936a34.133333 34.133333 0 0 1 48.298667-48.213333L580.266667 222.293333a34.133333 34.133333 0 0 1-24.064 58.282667z" p-id="2718"></path><path d="M421.717333 415.146667a34.133333 34.133333 0 0 1-24.149333-58.282667l134.656-134.570667A34.133333 34.133333 0 0 1 580.266667 270.592L445.866667 405.162667a34.133333 34.133333 0 0 1-24.149334 9.984z" p-id="2719"></path><path d="M512 946.346667a366.933333 366.933333 0 0 1 0-733.866667 34.133333 34.133333 0 0 1 0 68.266667 298.666667 298.666667 0 1 0 289.194667 223.317333 34.133333 34.133333 0 0 1 66.133333-17.066667A367.445333 367.445333 0 0 1 512 946.346667z" p-id="2720"></path></svg>