<?xml version="1.0" standalone="no"?><!DOCTYPE svg PUBLIC "-//W3C//DTD SVG 1.1//EN" "http://www.w3.org/Graphics/SVG/1.1/DTD/svg11.dtd"><svg t="1706778923475" class="icon" viewBox="0 0 1024 1024" version="1.1" xmlns="http://www.w3.org/2000/svg" p-id="2387" xmlns:xlink="http://www.w3.org/1999/xlink" width="200" height="200"><path d="M802.133333 674.133333l-17.066666 12.8c-46.933333 42.666667-93.866667 72.533333-128 89.6-46.933333 17.066667-85.333333 25.6-128 25.6-55.466667 0-102.4-12.8-145.066667-34.133333-42.666667-25.6-72.533333-55.466667-98.133333-98.133333-25.6-38.4-34.133333-85.333333-34.133334-140.8 0-76.8 25.6-145.066667 81.066667-192 51.2-51.2 115.2-76.8 196.266667-76.8 98.133333 0 179.2 34.133333 256 115.2l12.8 12.8 149.333333-136.533334-12.8-17.066666c-51.2-59.733333-115.2-102.4-179.2-132.266667-76.8-29.866667-149.333333-46.933333-217.6-46.933333-85.333333 0-162.133333 21.333333-247.466667 64-81.066667 42.666667-140.8 98.133333-179.2 174.933333-42.666667 81.066667-64 153.6-64 238.933333 0 140.8 46.933333 260.266667 136.533334 345.6 93.866667 85.333333 209.066667 132.266667 349.866666 132.266667 68.266667 0 132.266667-12.8 209.066667-38.4 59.733333-25.6 119.466667-68.266667 187.733333-136.533333l17.066667-17.066667-145.066667-145.066667z" fill="#CCB47F" p-id="2388"></path></svg>