<?xml version="1.0" standalone="no"?><!DOCTYPE svg PUBLIC "-//W3C//DTD SVG 1.1//EN" "http://www.w3.org/Graphics/SVG/1.1/DTD/svg11.dtd"><svg t="1706887174764" class="icon" viewBox="0 0 1024 1024" version="1.1" xmlns="http://www.w3.org/2000/svg" p-id="7312" xmlns:xlink="http://www.w3.org/1999/xlink" width="200" height="200"><path d="M934.4 537.6c1.792 58.5984 76.8 128 76.8 128l-128 204.8s-47.0016-33.152-128 0c-74.5728 30.5152-82.4832 153.6-82.4832 153.6H351.2832s-10.6496-123.392-82.4832-153.6c-51.6096-21.7088-153.6 0-153.6 0l-102.4-204.8s76.8-85.4784 76.8-153.6-76.8-128-76.8-128l102.4-230.4s103.3472 24.3712 153.6 0c69.7088-33.8176 76.8-153.6 76.8-153.6h307.2s21.8624 127.616 76.8 153.6c55.5008 26.24 153.6 0 153.6 0l128 233.2416S932.4032 472.6528 934.4 537.6z m25.6-153.6l-102.4-179.2s-66.3808 22.4256-128 0c-87.9872-32.0256-102.4-153.6-102.4-153.6H371.2s0 97.9456-51.2 128c-47.1296 27.648-179.2 25.6-179.2 25.6l-76.8 179.2s76.8 70.0928 76.8 128-76.8 153.6-76.8 153.6l76.8 153.6s127.3344-11.7504 153.6 0c70.3232 31.4368 95.5136 151.68 102.4 153.6h230.4s25.7536-120.6272 128-153.6c54.2464-17.5104 102.4 0 102.4 0l102.4-153.6s-76.9536-30.592-76.8-128c0.1536-95.5648 76.8-153.6 76.8-153.6z" fill="#8D7E69" p-id="7313"></path><path d="M512 691.2a192 192 0 1 1 0-384 192 192 0 0 1 0 384z m0-332.8a140.8 140.8 0 1 0 0 281.6 140.8 140.8 0 1 0 0-281.6z" fill="#DCBA7D" p-id="7314"></path></svg>