<?xml version="1.0" standalone="no"?><!DOCTYPE svg PUBLIC "-//W3C//DTD SVG 1.1//EN" "http://www.w3.org/Graphics/SVG/1.1/DTD/svg11.dtd"><svg t="1706772680063" class="icon" viewBox="0 0 1024 1024" version="1.1" xmlns="http://www.w3.org/2000/svg" p-id="45808" xmlns:xlink="http://www.w3.org/1999/xlink" width="200" height="200"><path d="M0 0h1024v1024H0V0m269.056 855.616c22.784 48.32 67.712 88.192 144.512 88.192 85.376 0 144-45.504 144-145.088V469.888H460.8v326.528c0 48.96-19.904 61.44-51.2 61.44-33.024 0-46.656-22.72-62.016-49.472l-78.528 47.232m340.224-10.24c28.416 55.744 85.888 98.432 175.808 98.432 91.008 0 159.296-47.232 159.296-134.272 0-80.192-46.08-116.032-128-151.36l-23.936-10.24c-41.536-17.6-59.136-29.568-59.136-57.984 0-23.36 17.6-41.6 46.08-41.6 27.264 0 45.44 12.032 62.016 41.6l74.496-49.536c-31.296-54.592-75.648-75.648-136.512-75.648-85.888 0-141.12 54.656-141.12 126.848 0 78.528 46.08 115.52 115.52 145.088l23.872 10.24c44.352 19.328 70.528 31.296 70.528 64.32 0 27.264-25.6 47.168-65.408 47.168-47.232 0-74.496-24.448-94.976-58.56l-78.528 45.44z" fill="#FFCA28" p-id="45809"></path></svg>