<?xml version="1.0" standalone="no"?><!DOCTYPE svg PUBLIC "-//W3C//DTD SVG 1.1//EN" "http://www.w3.org/Graphics/SVG/1.1/DTD/svg11.dtd"><svg t="1706889013562" class="icon" viewBox="0 0 1024 1024" version="1.1" xmlns="http://www.w3.org/2000/svg" p-id="6957" xmlns:xlink="http://www.w3.org/1999/xlink" width="200" height="200"><path d="M513.378263 748.606061c-107.49802 0-214.99604-0.029737-322.494061 0.102141-4.521374 0.005172-6.149172-0.495192-6.144-5.739313 0.18101-153.168162 0.173253-306.336323 0.019394-459.504485-0.005172-4.685576 0.99297-5.611313 5.629414-5.607434 215.210667 0.142222 430.422626 0.147394 645.633293-0.019394 5.169131-0.003879 5.780687 1.523071 5.776808 6.102626-0.126707 152.952242-0.131879 305.905778 0.019394 458.85802 0.005172 4.870465-1.126141 5.935838-5.950061 5.928081-107.495434-0.157737-214.992162-0.120242-322.490181-0.120242z" fill="#FEFEFE" p-id="6958"></path><path d="M335.221657 468.040404c-4.796768-7.991596-9.174626-15.313455-12.493576-23.204202-17.410586-41.395717-8.850101-80.800323 24.413091-110.890667 19.662869-17.786828 41.795232-30.939798 68.42699-35.329293 27.936323-4.605414 53.775515 1.854061 78.564848 14.47693 30.482101 15.522909 51.013818 40.217859 65.997576 70.300444 2.270384 4.556283-0.488727 5.626828-3.172849 7.363232-38.509899 24.90699-59.402343 61.008162-65.357575 105.737051-6.034101 45.323636 1.799758 88.702707 21.419959 130.010505 16.566303 34.878061 38.473697 66.170828 63.396202 95.484121 1.442909 1.696323 3.602101 2.950465 4.116687 6.525414-11.884606-6.906828-23.554586-12.62804-35.899475-16.796444-39.593374-13.372768-80.157737-19.025455-121.986586-16.478384-36.088242 2.19798-71.903677 8.309657-108.150949 7.823515-21.869899-0.293495-43.384242-3.046141-63.085899-13.710222-25.213414-13.648162-39.276606-36.346828-48.764121-62.08-15.694869-42.563232-11.794101-82.925899 16.54303-119.513212 13.580929-17.534707 33.360162-25.288404 53.560889-31.780202 17.092525-5.492364 34.746182-8.129939 52.761859-7.943758 2.941414 0.03103 5.885414 0.005172 9.709899 0.005172z" fill="#12AEBA" p-id="6959"></path><path d="M709.524687 496.502949c21.52598-5.903515 41.857293-8.511354 63.074262-5.801373 30.002424 3.830949 55.436929 36.304162 58.733899 60.678464 1.383434 10.224485 3.219394 20.403717 2.044122 30.809213-2.304 20.402424-13.097374 35.630545-29.13099 47.537131-21.360485 15.861657-45.93002 24.458343-71.634748 29.477495-28.718545 5.607434-56.60703 13.070222-81.550222 28.953858-16.208162 10.320162-31.590141 21.739313-43.897535 36.725657-3.730101 4.542061-4.729535-0.213333-5.946182-1.723475-20.44897-25.386667-38.272-52.495515-53.144566-81.537293-14.092929-27.518707-25.411232-56.009697-30.334707-86.694788-9.367273-58.378343 7.563636-107.03903 55.290828-143.030303 33.779071-25.473293 83.417212-24.789333 117.338506 0.284445 16.840404 12.44703 21.895758 30.745859 23.264969 50.435879 0.777051 11.176081-0.801616 22.221576-4.107636 33.88509z" fill="#E83090" p-id="6960"></path><path d="M619.759192 727.876525c12.832323-11.571717 25.976242-19.582707 39.500283-27.037737 30.960485-17.066667 63.899152-24.621253 99.260767-20.794182 7.886869 0.853333 8.428606 1.303273 5.915152 9.153939-6.665051 20.816162-22.60299 30.458828-42.65503 34.786263-26.105535 5.634586-52.606707 4.040404-79.01996 3.896889-7.078788-0.037495-14.157576-0.005172-23.001212-0.005172z" fill="#E83090" p-id="6961"></path><path d="M421.334626 558.382545l13.359839-25.495272H419.28404c-11.848404 0-23.70198-0.197818-35.543919 0.090505-5.21697 0.126707-5.16396-2.042828-3.815434-5.86602 2.371232-6.727111 8.056242-11.567838 15.498343-11.651879 21.109657-0.237899 42.223192-0.05301 63.334142-0.137051 5.772929-0.023273 3.842586 3.675798 2.69705 6.030223-5.267394 10.823111-10.801131 21.518222-16.378828 32.187474-4.539475 8.680727-4.618343 8.614788 4.221414 13.067637 4.610586 2.322101 9.054384 5.028202 13.805899 7.001212 4.12703 1.714424 3.27499 3.671919 1.004606 6.016-4.854949 5.011394-10.770101 6.985697-17.622626 5.49107-2.068687-0.451232-4.346828-1.119677-5.934546-2.415191-12.263434-10.01503-24.237253-9.14101-36.342949 0.298666-2.33503 1.820444-5.214384 3.01899-7.968323 4.212364-5.696646 2.465616-11.359677 2.053172-16.739556-0.973576-2.642747-1.486869-5.713455-3.40299-5.811717-6.471111-0.093091-2.898747 3.648646-3.139232 5.784566-4.336485 6.003071-3.364202 12.068202-6.630141 18.230303-9.686626 2.999596-1.488162 3.148283-2.721616 0.870141-5.112243-4.601535-4.830384-8.720808-10.136566-13.480081-14.794989-4.239515-4.150303-2.261333-6.017293 1.93293-7.69293 7.420121-2.964687 15.084606-0.985212 21.038545 5.524687 4.301576 4.701091 8.538505 9.461657 13.270626 14.713535z" fill="#FEFEFE" p-id="6962"></path><path d="M357.942303 524.806465c0 12.785778 0.003879 13.070222 12.390141 12.921535 5.435475-0.065939 5.776808 2.297535 4.322263 6.168566-2.181172 5.802667-6.247434 9.82497-12.454788 11.042909-3.400404 0.667152-4.451556 2.262626-4.336485 5.670788 0.253414 7.527434 0.360727 15.084606-0.024565 22.600404-0.243071 4.737293 1.719596 5.471677 5.646222 4.642909 2.095838-0.442182 4.283475-0.43701 6.389656-0.84299 5.434182-1.044687 5.758707 1.773899 4.51491 5.82206-1.891556 6.158222-5.563475 10.799838-12.00097 12.330667-3.697778 0.879192-4.69204 2.658263-4.531717 6.272 0.293495 6.662465 0.156444 13.346909 0.067232 20.02101-0.165495 12.493576-7.051636 19.496081-19.573657 19.961536-2.795313 0.103434-5.625535-0.231434-8.391111 0.072404-5.48202 0.599919-6.36897-1.801051-4.71402-6.389657 1.759677-4.876929 4.522667-9.063434 9.550869-10.673131 3.656404-1.170101 4.544646-3.171556 4.185212-6.556445-0.20299-1.916121 0.002586-3.872323-0.04396-5.809131-0.103434-4.283475 1.250263-9.612929-0.801616-12.551758-2.027313-2.902626-7.536485-0.338747-11.500606-0.245656-3.644768 0.085333-4.513616-1.167515-3.886545-4.557576 1.259313-6.795636 5.148444-11.726869 11.58206-13.353374 4.376566-1.106747 4.724364-3.170263 4.66101-6.703838-0.147394-8.179071-0.188768-16.367192 0.016808-24.543677 0.085333-3.405576-1.056323-4.719192-4.429575-4.375273-1.917414 0.195232-3.872323 0.036202-5.810425 0.032324-7.484768-0.014222-8.661333-1.931636-5.021737-8.508768 2.37899-4.29899 5.832404-8.054949 10.683475-8.670384 5.341091-0.677495 4.487758-3.93697 4.518788-7.257212 0.08404-9.218586 4.407596-15.530667 12.303515-18.470788 4.904081-1.825616 7.390384-0.94901 6.733576 4.853657-0.265051 2.33503-0.04396 4.728242-0.04396 7.096889zM394.29301 610.464323c-3.444364-0.002586-6.888727 0.028444-10.333091-0.00905-5.928081-0.064646-6.86804-1.384727-4.273131-6.818909 2.985374-6.252606 7.810586-10.163717 15.06004-10.364122 1.935515-0.05301 3.886545-0.155152 5.809132 0.007758 5.94101 0.501657 11.381657 0.435717 14.13301-6.459475 0.92703-2.323394 3.618909-3.611152 5.968161-4.741171 6.25002-3.007354 8.073051-2.064808 7.718788 4.844606-0.265051 5.176889 1.467475 6.718061 6.544808 6.437495 7.511919-0.413737 15.063919-0.028444 22.596526-0.14093 3.150869-0.046545 4.128323 0.784808 3.281454 4.146424-1.740283 6.913293-7.872646 12.61899-15.027717 13.018506-4.292525 0.239192-8.623838 0.29996-12.908606 0.012929-4.185212-0.279273-4.421818 2.073859-4.41794 5.211798 0.005172 3.051313-0.027152 5.399273 4.271839 5.275151 9.248323-0.268929 18.519919 0.165495 27.763071-0.173252 5.46004-0.200404 5.670788 2.113939 4.173575 6.220283-2.394505 6.566788-8.572121 11.363556-15.544889 11.738505-2.790141 0.14998-5.597091 0.089212-8.393697 0.025858-6.469818-0.147394-13.322343-1.414465-15.248808 7.782142-0.369778 1.764848-2.660848 3.331879-4.371394 4.565333-2.618182 1.88897-5.814303 4.128323-8.868202 2.858667-3.441778-1.42998-1.733818-5.447111-1.445495-8.057536 0.690424-6.25002-1.922586-7.548121-7.580444-7.254626-8.587636 0.446061-17.224404-0.130586-25.822384 0.210748-5.011394 0.199111-5.298424-1.701495-3.929212-5.682425 2.547071-7.399434 8.705293-12.043636 17.132606-12.282828 5.377293-0.152566 10.771394-0.217212 16.140929 0.027152 3.969293 0.18101 3.977051-2.159192 3.908526-4.940283-0.069818-2.828929 0.402101-5.774222-4.075313-5.506586-4.071434 0.243071-8.172606 0.050424-12.262142 0.047838zM659.603394 614.141414c-18.095838 0-34.879354 0.019394-51.664162-0.010343-6.207354-0.010343-7.197737-1.670465-4.183919-7.215839 2.756525-5.070869 7.025778-8.29802 12.899556-8.338101 22.811152-0.155152 45.624889-0.046545 68.437333-0.199111 4.371394-0.029737 3.882667 2.111354 2.808242 4.836849-3.062949 7.770505-8.683313 13.760646-14.021818 19.931798-2.240646 2.589737-4.645495 5.038545-7.557171 8.177777 8.389818 2.854788 16.795152 5.712162 25.197899 8.573415 5.904808 2.010505 6.306909 3.498667 1.861818 8.010989-4.807111 4.878222-10.649859 6.350869-17.168808 4.292526-8.811313-2.782384-17.37697-6.727111-26.377051-8.41697-9.060848-1.700202-16.712404 5.504-25.624566 6.587475-6.595232 0.801616-13.03402 2.880646-19.775353 2.540606-6.251313-0.315475-11.089455-3.198707-14.369616-8.489374-1.696323-2.737131-1.634263-4.319677 2.517333-4.672646 8.657455-0.735677 17.299394-1.914828 27.319596-4.525253-6.653414-2.618182-11.870384-4.984242-17.291636-6.715475-5.365657-1.713131-4.481293-4.17099-1.360162-7.113697 4.38303-4.130909 9.492687-5.859556 15.388445-3.733979 6.667636 2.403556 13.455515 4.588606 19.859393 7.577858 5.016566 2.342788 8.865616 1.609697 12.922829-1.755798 3.317657-2.751354 6.968889-5.091556 10.181818-9.342707z" fill="#FEFEFE" p-id="6963"></path><path d="M621.721859 576.452525c24.401455 0 48.717576-0.010343 73.034989 0.006465 6.690909 0.003879 7.844202 2.024727 4.389495 7.950222-3.215515 5.515636-8.132525 7.82998-14.533818 7.796364-22.81503-0.116364-45.632646 0.058182-68.446384-0.14093-4.108929-0.036202-6.614626 1.093818-8.934141 4.611879-7.45503 11.309253-15.273374 22.380606-23.063273 33.464889-4.936404 7.023192-12.387556 9.867636-19.542626 7.968323-4.611879-1.224404-6.048323-2.844444-2.680242-7.356767 8.61996-11.547152 16.819717-23.407192 25.177212-35.150869 0.585697-0.823596 1.086061-1.706667 2.182464-3.443071-7.237818 0-13.613253-0.312889-19.942141 0.09697-5.255758 0.341333-5.430303-2.329859-3.995152-5.818182 2.377697-5.780687 6.663758-9.479758 13.145213-9.881858 3.646061-0.226263 7.325737-0.274101 10.970505-0.062061 6.544808 0.378828 12.878869 0.734384 16.078868-6.865455 0.508121-1.20501 2.176-2.071273 3.483152-2.762989 4.836848-2.558707 10.374465-3.661576 14.701899-0.324526 4.24598 3.273697-3.01899 5.622949-2.02602 9.911596z" fill="#FEFEFE" p-id="6964"></path><path d="M682.633051 545.808808c3.814141 0 7.496404 0.341333 11.088161-0.080162 5.369535-0.629657 6.437495 1.754505 6.345697 6.60299-0.231434 12.275071-3.695192 18.135919-12.37204 20.693334-4.417939 1.30198-6.156929 0.140929-5.491071-4.314505 0.768-5.135515-1.299394-6.44396-6.361212-6.403879-30.334707 0.236606-60.672 0.162909-91.008 0.056889-3.600808-0.012929-6.050909 0.373657-6.617212 4.690747-0.466747 3.564606-3.123717 6.041859-5.899637 8.176485-2.816 2.165657-6.247434 4.075313-9.515959 2.825051-3.549091-1.357576-1.445495-5.302303-1.563152-8.029091-0.228848-5.308768-0.863677-10.780444 2.176-15.702627 4.041697-6.546101 10.409374-8.515232 17.507556-8.811313 0-0.646465 0.037495-1.05503-0.006465-1.454545-0.280566-2.579394-4.269253-4.838141-1.824323-7.288243 2.291071-2.296242 6.114263-1.912242 9.287111-1.245091 4.262788 0.897293 8.115717 2.726788 10.920081 6.33794 2.419071 3.114667 14.270061 5.576404 17.472646 3.763717 2.190222-1.239919 0.59604-2.684121-0.010343-3.724929-2.967273-5.094141-0.270222-6.385778 4.220121-6.601697 5.943596-0.28703 11.430788 1.388606 14.815677 6.246141 2.660848 3.81802 5.68501 4.614465 9.788768 4.306748 2.995717-0.22497 6.040566-0.263758 9.028525 0.011636 3.779232 0.349091 6.411636-0.647758 8.528161-4.10505 2.226424-3.635717 6.208646-5.209212 10.280081-6.101334 3.903354-0.855919 8.197172-0.954182 10.987313 1.944566 2.336323 2.429414-2.461737 4.561455-1.776484 8.206222zM625.172687 531.586586c-18.294949 0-36.592485-0.152566-54.883556 0.09697-5.197576 0.071111-5.986263-1.676929-4.058505-5.951354 3.242667-7.18998 9.089293-9.868929 16.615435-9.862465 27.119192 0.023273 54.238384 0.007758 81.358868 0.007758 9.040162 0 18.081616 0.108606 27.117899-0.051717 3.595636-0.064646 4.492929 0.989091 3.450829 4.521374-2.068687 7.010263-7.407192 11.194182-15.361293 11.22004-18.080323 0.059475-36.159354 0.019394-54.239677 0.019394z" fill="#FEFEFE" p-id="6965"></path></svg>