<?xml version="1.0" standalone="no"?><!DOCTYPE svg PUBLIC "-//W3C//DTD SVG 1.1//EN" "http://www.w3.org/Graphics/SVG/1.1/DTD/svg11.dtd"><svg t="1706886936801" class="icon" viewBox="0 0 1024 1024" version="1.1" xmlns="http://www.w3.org/2000/svg" p-id="99597" xmlns:xlink="http://www.w3.org/1999/xlink" width="200" height="200"><path d="M654.665143 0H256a146.285714 146.285714 0 0 0-146.285714 146.285714v731.428572a146.285714 146.285714 0 0 0 146.285714 146.285714h512a146.285714 146.285714 0 0 0 146.285714-146.285714V259.620571L654.665143 0z" fill="#1EAFFF" p-id="99598"></path><path d="M658.285714 0v227.620571a28.525714 28.525714 0 0 0 28.708572 28.379429H914.285714l-256-256z" fill="#98DAFF" p-id="99599"></path><path d="M322.267429 379.099429C298.825143 351.561143 256 369.371429 256 406.674286V841.142857h76.251429v-329.069714l151.588571 177.993143a36.425143 36.425143 0 0 0 56.32 0l151.588571-177.993143V841.142857H768V406.674286c0-37.302857-42.788571-55.113143-66.304-27.574857L512 601.892571l-189.732571-222.793142z" fill="#FFFFFF" p-id="99600"></path></svg>