<?xml version="1.0" standalone="no"?><!DOCTYPE svg PUBLIC "-//W3C//DTD SVG 1.1//EN" "http://www.w3.org/Graphics/SVG/1.1/DTD/svg11.dtd"><svg t="1706779038151" class="icon" viewBox="0 0 1024 1024" version="1.1" xmlns="http://www.w3.org/2000/svg" p-id="3570" xmlns:xlink="http://www.w3.org/1999/xlink" width="200" height="200"><path d="M894.15672 269.824056L698.675161 66.252899 688.435163 0.307313 249.036855 0.000113c-100.249579-0.1024-182.271962 72.601585-182.374361 161.484766l-0.512 700.415853c-0.1024 88.883181 81.919983 161.689566 182.169561 161.791966l526.64309 0.3072c100.249579 0.1024 182.374362-72.601585 182.374361-161.484766l0.4096-592.588676-63.590386-0.1024z" fill="#F39205" p-id="3571"></path><path d="M688.435163 0.000113v143.667169c0 69.427185 56.319988 125.747174 125.747174 125.747174h143.667169L688.435163 0.000113z" fill="#F4D9B5" p-id="3572"></path><path d="M262.860852 630.98878V524.185603h-34.099193V477.184012l37.068793-2.969599 7.372798-64.614386h53.043189v64.511986h59.494388v49.97119h-59.494388v106.905577c0 27.545594 11.161598 40.550391 32.767993 40.550392 7.782398 0 17.203196-2.559999 23.756795-5.222399l10.342398 46.07999c-12.902397 4.300799-29.695994 9.011198-50.892789 9.011198-57.343988 0.2048-79.359983-36.044792-79.359984-90.419181zM476.672007 589.619189l-70.655985-115.507176H474.112008l24.166395 43.110391c6.860799 13.414397 14.233597 27.135994 21.503995 40.550392h1.7408c5.631999-13.414397 12.083197-27.135994 17.612796-40.550392l20.275196-43.110391h65.535986l-70.655985 122.879974L629.759975 715.571162h-68.095985l-26.726395-43.92959c-7.782398-14.233597-15.462397-28.876794-23.244795-42.700791h-2.150399c-6.860799 13.823997-13.414397 28.057594-20.275196 42.700791l-22.425596 43.92959h-65.535986l75.366384-125.951973zM666.316768 630.98878V524.185603h-34.099193V477.184012l37.068792-2.969599 7.372798-64.614386h53.043189v64.511986h59.494388v49.97119h-59.494388v106.905577c0 27.545594 11.161598 40.550391 32.767993 40.550392 7.782398 0 17.203196-2.559999 23.756795-5.222399l10.342398 46.07999c-12.902397 4.300799-29.695994 9.011198-50.892789 9.011198-57.343988 0.2048-79.359983-36.044792-79.359983-90.419181z" fill="#FFFFFF" p-id="3573"></path></svg>