<?xml version="1.0" standalone="no"?><!DOCTYPE svg PUBLIC "-//W3C//DTD SVG 1.1//EN" "http://www.w3.org/Graphics/SVG/1.1/DTD/svg11.dtd"><svg t="1706887472087" class="icon" viewBox="0 0 1024 1024" version="1.1" xmlns="http://www.w3.org/2000/svg" p-id="14346" xmlns:xlink="http://www.w3.org/1999/xlink" width="200" height="200"><path d="M0.256 343.082557h1023.936004v330.603338H0.256z" fill="#F95F5D" p-id="14347"></path><path d="M1024.192004 330.603337V63.164052A64.571964 64.571964 0 0 0 960.196004 0H63.996016a64.63596 64.63596 0 0 0-63.996 63.164052v267.247297z" fill="#55C7F7" p-id="14348"></path><path d="M0.256 693.332667v267.311293a64.443972 64.443972 0 0 0 63.484032 63.164052h896.96794a64.443972 64.443972 0 0 0 63.484032-63.164052v-267.311293z" fill="#7ECF3B" p-id="14349"></path><path d="M366.697097 0h289.261922v1023.936004h-289.261922z" fill="#FDAF42" p-id="14350"></path><path d="M637.272186 425.317418v161.333916H380.584229V425.317418z m41.917381-66.747829H338.666849a17.214924 17.214924 0 0 0-15.67902 16.702956v255.984001a17.342916 17.342916 0 0 0 15.67902 16.702957h340.522718a17.214924 17.214924 0 0 0 15.67902-16.702957v-255.984001c-5.183676-11.135304-10.495344-16.63896-15.67902-16.63896z" fill="#FFFFFF" p-id="14351"></path></svg>